<?xml version="1.0" encoding="UTF-8" standalone="no"?>
<!-- Created with Inkscape (http://www.inkscape.org/) -->

<svg
   xmlns:dc="http://purl.org/dc/elements/1.1/"
   xmlns:cc="http://creativecommons.org/ns#"
   xmlns:rdf="http://www.w3.org/1999/02/22-rdf-syntax-ns#"
   xmlns:svg="http://www.w3.org/2000/svg"
   xmlns="http://www.w3.org/2000/svg"
   xmlns:sodipodi="http://sodipodi.sourceforge.net/DTD/sodipodi-0.dtd"
   xmlns:inkscape="http://www.inkscape.org/namespaces/inkscape"
   width="744.09448819"
   height="1052.3622047"
   id="svg2"
   version="1.1"
   inkscape:version="0.48.5 r10040"
   sodipodi:docname="New document 1">
  <defs
     id="defs4" />
  <sodipodi:namedview
     id="base"
     pagecolor="#ffffff"
     bordercolor="#666666"
     borderopacity="1.0"
     inkscape:pageopacity="0.0"
     inkscape:pageshadow="2"
     inkscape:zoom="1.4"
     inkscape:cx="344.47159"
     inkscape:cy="597.96546"
     inkscape:document-units="px"
     inkscape:current-layer="layer1"
     showgrid="false"
     inkscape:window-width="1189"
     inkscape:window-height="712"
     inkscape:window-x="4"
     inkscape:window-y="0"
     inkscape:window-maximized="0" />
  <metadata
     id="metadata7">
    <rdf:RDF>
      <cc:Work
         rdf:about="">
        <dc:format>image/svg+xml</dc:format>
        <dc:type
           rdf:resource="http://purl.org/dc/dcmitype/StillImage" />
        <dc:title></dc:title>
      </cc:Work>
    </rdf:RDF>
  </metadata>
  <g
     inkscape:label="Layer 1"
     inkscape:groupmode="layer"
     id="layer1">
    <path
       style="fill:#9d1331;fill-opacity:1"
       d="m 192.85248,431.69255 c 0,-0.36134 0.37566,-0.85116 0.83481,-1.08849 0.45915,-0.23733 0.83481,0.0583 0.83481,0.65698 0,0.59867 -0.37566,1.08849 -0.83481,1.08849 -0.45915,0 -0.83481,-0.29564 -0.83481,-0.65698 z m 3.33924,-0.0412 c 0,-0.384 0.37567,-0.69819 0.83482,-0.69819 0.45914,0 0.83481,0.31419 0.83481,0.69819 0,0.38401 -0.37567,0.69819 -0.83481,0.69819 -0.45915,0 -0.83482,-0.31418 -0.83482,-0.69819 z m -6.287,-0.73325 c -0.79324,-1.07345 0.29331,-1.76605 1.36479,-0.86993 0.59954,0.50143 0.61394,0.89195 0.0437,1.18667 -0.46743,0.24161 -1.10127,0.0991 -1.40855,-0.31674 z m 7.12182,-1.36132 c 0,-0.384 0.54132,-0.69818 1.20294,-0.69818 0.66163,0 1.43513,0.31418 1.7189,0.69818 0.28377,0.38401 -0.25756,0.69819 -1.20295,0.69819 -0.94539,0 -1.71889,-0.31418 -1.71889,-0.69819 z m 5.00887,0 c 0,-0.384 0.5635,-0.69818 1.25222,-0.69818 0.68871,0 1.25221,0.31418 1.25221,0.69818 0,0.38401 -0.5635,0.69819 -1.25221,0.69819 -0.68872,0 -1.25222,-0.31418 -1.25222,-0.69819 z m -10.85256,-0.69818 c 0,-0.38401 0.37567,-0.69819 0.83481,-0.69819 0.45915,0 0.83482,0.31418 0.83482,0.69819 0,0.384 -0.37567,0.69818 -0.83482,0.69818 -0.45914,0 -0.83481,-0.31418 -0.83481,-0.69818 z m 3.06098,0.23272 c -0.96057,-0.80335 -0.60794,-1.6291 0.69568,-1.6291 0.68872,0 1.25221,0.47127 1.25221,1.04728 0,1.09027 -0.98733,1.38519 -1.94789,0.58182 z m 11.13082,-0.23272 c 0,-0.38401 0.39784,-0.69819 0.88409,-0.69819 0.48624,0 0.6519,0.31418 0.36813,0.69819 -0.28377,0.384 -0.6816,0.69818 -0.88408,0.69818 -0.20248,0 -0.36814,-0.31418 -0.36814,-0.69818 z m -7.06024,-1.34814 c -0.57024,-0.77166 0.74665,-1.60489 1.51753,-0.96018 0.79373,0.66383 0.6458,1.61013 -0.2517,1.61013 -0.43205,0 -1.00167,-0.29248 -1.26583,-0.64995 z m 3.46012,0.19903 c -1.08868,-0.9105 -0.56892,-1.64365 1.16525,-1.64365 0.97152,0 1.59333,0.36597 1.40875,0.8291 -0.40665,1.02029 -1.80057,1.46141 -2.574,0.81455 z m -15.60055,-0.94546 c 0,-0.38401 0.39784,-0.69819 0.88408,-0.69819 0.48625,0 0.65191,0.31418 0.36814,0.69819 -0.28377,0.384 -0.6816,0.69819 -0.88408,0.69819 -0.20248,0 -0.36814,-0.31419 -0.36814,-0.69819 z m 3.33925,-0.3903 c 0,-0.59867 0.37566,-0.89431 0.83481,-0.65699 0.45915,0.23733 0.83481,0.72715 0.83481,1.08849 0,0.36135 -0.37566,0.65699 -0.83481,0.65699 -0.45915,0 -0.83481,-0.48982 -0.83481,-1.08849 z m -6.25267,-0.31928 c 0.28839,-0.39027 0.87406,-0.52882 1.30148,-0.30789 1.15792,0.59851 0.94201,1.01747 -0.52436,1.01747 -0.71581,0 -1.06552,-0.31931 -0.77712,-0.70958 z m 22.11409,-0.39589 c 0,-1.23295 1.79715,-1.01823 2.31313,0.27637 0.18174,0.45601 -0.26435,0.8291 -0.99134,0.8291 -0.72698,0 -1.32179,-0.49746 -1.32179,-1.10547 z m -3.61751,-0.75637 c -0.96057,-0.80336 -0.60794,-1.62911 0.69567,-1.62911 0.68872,0 1.25222,0.47128 1.25222,1.04729 0,1.09027 -0.98733,1.38518 -1.94789,0.58182 z m 6.95676,-0.23273 c 0,-0.384 0.37567,-0.69819 0.83481,-0.69819 0.45915,0 0.83482,0.31419 0.83482,0.69819 0,0.384 -0.37567,0.69819 -0.83482,0.69819 -0.45914,0 -0.83481,-0.31419 -0.83481,-0.69819 z m -25.87917,-0.7394 c 0,-0.40666 -0.37566,-0.54521 -0.83481,-0.30788 -0.45914,0.23733 -0.83481,0.0651 -0.83481,-0.38259 0,-0.4555 0.58165,-0.62742 1.3205,-0.3903 0.72627,0.23309 1.66543,0.42379 2.08702,0.42379 0.4216,0 0.76654,0.31419 0.76654,0.69819 0,0.38401 -0.5635,0.69819 -1.25222,0.69819 -0.68872,0 -1.25222,-0.33273 -1.25222,-0.7394 z m 3.75666,0.0412 c 0.28377,-0.384 0.6816,-0.69819 0.88408,-0.69819 0.20247,0 0.36814,0.31419 0.36814,0.69819 0,0.38401 -0.39784,0.69819 -0.88408,0.69819 -0.48625,0 -0.65191,-0.31418 -0.36814,-0.69819 z m 18.13977,-0.8291 c 0.51597,-1.29459 2.31312,-1.50932 2.31312,-0.27636 0,0.608 -0.5948,1.10546 -1.32178,1.10546 -0.72699,0 -1.17309,-0.37309 -0.99134,-0.8291 z m 3.52038,-0.62811 c -0.30849,-0.41747 -0.17556,-1.0813 0.2954,-1.47518 1.05322,-0.88086 2.6714,-0.13693 2.6714,1.22813 0,1.17548 -2.14851,1.35439 -2.9668,0.24705 z m -25.28195,-1.0242 c -1.07369,-0.46794 -1.63305,-1.01573 -1.24301,-1.21734 0.73142,-0.37807 4.18803,1.40193 3.55165,1.82894 -0.19606,0.13154 -1.23494,-0.14368 -2.30864,-0.6116 z m 20.10933,-1.18408 c 0.19132,-0.48001 0.84873,-0.87274 1.46092,-0.87274 0.6122,0 1.26961,0.39273 1.46092,0.87274 0.20692,0.51916 -0.38494,0.87273 -1.46092,0.87273 -1.07598,0 -1.66783,-0.35357 -1.46092,-0.87273 z m 8.13942,0.17455 c 0,-0.38401 0.5635,-0.69819 1.25222,-0.69819 0.68872,0 1.25221,0.31418 1.25221,0.69819 0,0.384 -0.56349,0.69818 -1.25221,0.69818 -0.68872,0 -1.25222,-0.31418 -1.25222,-0.69818 z m -32.14026,-0.69819 c 0.28377,-0.38401 0.6816,-0.69819 0.88408,-0.69819 0.20248,0 0.36814,0.31418 0.36814,0.69819 0,0.384 -0.39784,0.69819 -0.88408,0.69819 -0.48625,0 -0.65191,-0.31419 -0.36814,-0.69819 z m 27.41946,-1.0774 c -0.27189,-0.59257 -0.26917,-1.26571 0.006,-1.49587 0.59457,-0.49727 3.04514,1.08049 3.04514,1.96056 0,1.05363 -2.53142,0.6681 -3.05117,-0.46469 z m -24.08021,-0.31898 c 0.28377,-0.38401 0.86943,-0.69819 1.30148,-0.69819 0.43205,0 0.78555,0.31418 0.78555,0.69819 0,0.384 -0.58567,0.69819 -1.30149,0.69819 -0.71581,0 -1.06931,-0.31419 -0.78554,-0.69819 z m 28.41926,0.0482 c -0.61739,-0.83545 0.95303,-1.66324 2.06499,-1.08849 0.93362,0.48258 0.32071,1.73844 -0.84843,1.73844 -0.40495,0 -0.9524,-0.29248 -1.21656,-0.64995 z m -30.50629,-0.74643 c 0,-0.38401 0.39783,-0.69819 0.88408,-0.69819 0.48624,0 0.6519,0.31418 0.36814,0.69819 -0.28377,0.384 -0.68161,0.69819 -0.88408,0.69819 -0.20248,0 -0.36814,-0.31419 -0.36814,-0.69819 z m 21.2877,0 c -0.28377,-0.38401 -0.14027,-0.69819 0.31887,-0.69819 0.45915,0 1.06699,0.31418 1.35076,0.69819 0.28376,0.384 0.14027,0.69819 -0.31888,0.69819 -0.45914,0 -1.06698,-0.31419 -1.35075,-0.69819 z m -23.37473,-1.39634 c 0.28377,-0.384 0.6816,-0.69819 0.88408,-0.69819 0.20248,0 0.36814,0.31419 0.36814,0.69819 0,0.384 -0.39784,0.69819 -0.88408,0.69819 -0.48625,0 -0.65191,-0.31419 -0.36814,-0.69819 z m 25.04071,-0.005 c -0.63385,-0.85775 1.66364,-1.69459 2.89912,-1.05597 0.48863,0.25256 0.67229,0.75167 0.40812,1.10915 -0.63716,0.86223 -2.65475,0.82978 -3.30724,-0.0532 z m 5.93084,0.11795 c -0.26539,-0.35914 0.0434,-1.01803 0.68617,-1.46419 0.69115,-0.47973 1.36588,-0.54438 1.65124,-0.15822 0.26539,0.35914 -0.0434,1.01803 -0.68617,1.46418 -0.69115,0.47974 -1.36587,0.54439 -1.65124,0.15823 z m 4.50795,-0.46215 c 0,-0.57601 0.37567,-1.04729 0.83482,-1.04729 0.45914,0 0.83481,0.47128 0.83481,1.04729 0,0.576 -0.37567,1.04728 -0.83481,1.04728 -0.45915,0 -0.83482,-0.47128 -0.83482,-1.04728 z M 180.539,415.28804 c -1.03308,-0.39846 -1.87833,-0.96415 -1.87833,-1.2571 0,-0.29294 -0.63863,-0.53263 -1.41918,-0.53263 -1.16873,0 -1.22398,-0.15401 -0.31305,-0.87273 0.8849,-0.69819 1.18265,-0.69819 1.48875,0 0.21044,0.48 0.75381,0.87273 1.20749,0.87273 0.89209,0 3.60754,2.04718 3.10073,2.33763 -0.16944,0.0971 -1.15333,-0.14944 -2.18641,-0.5479 z m 20.19923,-1.15237 c -0.30849,-0.41747 -0.2336,-1.03275 0.16642,-1.36731 0.98731,-0.82573 3.16028,0.37627 2.44066,1.35009 -0.72925,0.98683 -1.88491,0.99447 -2.60708,0.0172 z m 5.9471,0.13994 c -0.54532,-0.73795 1.84745,-2.55788 2.56928,-1.95418 0.69557,0.58173 -0.31058,2.57326 -1.30005,2.57326 -0.44646,0 -1.01761,-0.27858 -1.26923,-0.61908 z m 4.98607,-0.72905 c -0.26417,-0.35747 -0.1324,-0.82977 0.2928,-1.04955 1.08882,-0.5628 3.51508,0.31889 2.95673,1.07446 -0.60468,0.81828 -2.63796,0.80269 -3.24953,-0.0249 z m -30.9237,-1.44462 c -0.28376,-0.38401 0.0697,-0.69819 0.78555,-0.69819 0.71582,0 1.30148,0.31418 1.30148,0.69819 0,0.384 -0.35349,0.69818 -0.78554,0.69818 -0.43205,0 -1.01772,-0.31418 -1.30149,-0.69818 z m 23.32978,-0.0608 c -0.86029,-1.16417 1.07458,-2.49917 2.22621,-1.53601 0.96331,0.80565 0.36041,2.29503 -0.92904,2.29503 -0.40495,0 -0.98867,-0.34156 -1.29717,-0.75902 z m -29.81035,-1.8087 c -0.9998,-1.8352 -3.75104,-2.68932 -6.39876,-1.9865 -1.99276,0.52897 -2.06596,0.34952 -0.803,-1.96873 1.09311,-2.00649 4.29026,-3.39737 6.36784,-2.77025 0.80895,0.24419 2.49093,1.03489 3.73774,1.75712 2.092,1.21183 2.45921,1.23 4.75871,0.23549 3.35923,-1.45284 4.46822,-1.36244 6.60324,0.53825 2.42016,2.15454 2.28881,2.61753 -0.60525,2.13344 -1.91223,-0.31985 -2.52834,-0.12041 -2.93453,0.94992 -0.37819,0.99658 -1.74493,1.54136 -5.16928,2.06046 -4.46832,0.67737 -4.69132,0.63928 -5.55671,-0.9492 z m 23.9773,1.1249 c -0.30265,-0.40956 -0.34981,-0.9123 -0.10481,-1.1172 0.59799,-0.50012 2.22616,0.38109 2.22616,1.20485 0,0.89227 -1.44122,0.83271 -2.12135,-0.0876 z m 10.88323,0.0415 c -0.6547,-0.88598 1.68231,-1.68494 2.97464,-1.01695 0.70338,0.36357 0.65778,0.66047 -0.16873,1.09846 -1.49241,0.79088 -2.1759,0.77102 -2.80591,-0.0815 z m 5.42993,-0.34417 c 0,-0.576 0.37566,-1.04728 0.83481,-1.04728 0.45914,0 0.83481,0.47128 0.83481,1.04728 0,0.57601 -0.37567,1.04729 -0.83481,1.04729 -0.45915,0 -0.83481,-0.47128 -0.83481,-1.04729 z m -14.16873,-1.37312 c -0.58428,-0.5888 -0.73458,-1.07753 -0.33399,-1.08607 0.40057,-0.009 -0.20523,-0.61542 -1.34624,-1.34862 -1.141,-0.73321 -1.85219,-1.51908 -1.58041,-1.74638 0.78304,-0.65489 3.23756,0.37492 3.23756,1.35832 0,0.49014 0.79091,1.06414 1.75758,1.27556 0.96667,0.21141 1.6006,0.77825 1.40875,1.25962 -0.53554,1.34367 -1.96543,1.47449 -3.14325,0.28757 z m 6.14914,-0.66339 c -0.27895,-0.60793 -1.2183,-1.10534 -2.08747,-1.10534 -1.75379,0 -2.10936,-1.04051 -0.61886,-1.81093 0.52881,-0.27333 1.41547,0.0223 1.97037,0.65698 0.55489,0.63467 1.65621,1.15395 2.44736,1.15395 0.79115,0 1.28975,0.3731 1.108,0.8291 -0.52472,1.31656 -2.26389,1.48696 -2.8194,0.27624 z m -11.04745,-0.57457 c -1.08755,-0.90956 -1.30612,-2.62525 -0.33445,-2.62525 0.3487,0 1.09234,0.61381 1.65253,1.36401 1.15354,1.54482 0.15893,2.49653 -1.31808,1.26124 z m 16.7713,-0.007 c 0.19132,-0.48 0.84873,-0.87273 1.46092,-0.87273 0.6122,0 1.26961,0.39273 1.46092,0.87273 0.20692,0.51917 -0.38494,0.87274 -1.46092,0.87274 -1.07598,0 -1.66783,-0.35357 -1.46092,-0.87274 z m -2.71314,-1.92002 c 0,-0.384 0.77351,-0.69819 1.7189,-0.69819 0.94539,0 1.48672,0.31419 1.20295,0.69819 -0.28377,0.38401 -1.05728,0.69819 -1.7189,0.69819 -0.66162,0 -1.20295,-0.31418 -1.20295,-0.69819 z m 5.49553,0.0937 c -0.35961,-0.48664 -0.42839,-1.07335 -0.15285,-1.30381 0.74713,-0.62485 1.56174,0.29415 1.15821,1.30662 -0.28276,0.70949 -0.4794,0.70894 -1.00536,-0.003 z m -14.93403,-1.23837 c -0.77908,-0.65159 0.16238,-1.64809 1.55706,-1.64809 0.66162,0 1.20295,0.47127 1.20295,1.04728 0,1.05163 -1.76228,1.43525 -2.76001,0.60081 z m 6.28139,-0.35958 c 0.43329,-1.08716 2.30095,-1.27755 2.3664,-0.24123 0.0242,0.384 -0.58251,0.80674 -1.34837,0.93941 -0.87046,0.1508 -1.2521,-0.11092 -1.01803,-0.69818 z m -13.81739,-0.3576 c -0.76083,-0.63631 -0.70577,-3.02678 0.0695,-3.02003 0.34436,0.003 1.06034,0.78845 1.59108,1.74547 0.75016,1.35267 0.73466,1.74002 -0.0695,1.74002 -0.569,0 -1.28499,-0.20945 -1.59108,-0.46546 z m 19.05789,-0.23766 c -0.28577,-0.38671 0.0839,-0.8968 0.82155,-1.13353 1.59837,-0.51298 2.48917,0.0523 1.72086,1.09201 -0.69321,0.93808 -1.86573,0.95723 -2.54241,0.0415 z m -16.72692,-1.43789 c -0.30265,-0.40956 -0.34102,-0.91965 -0.0853,-1.13354 0.68675,-0.57436 3.04144,0.32223 3.04144,1.15807 0,0.94762 -2.25158,0.92893 -2.95617,-0.0245 z m 7.70946,0.29816 c -0.29361,-0.24557 -0.34419,-0.70312 -0.1124,-1.01679 0.52052,-0.70437 2.87241,-0.0168 2.87241,0.83978 0,0.7164 -1.96442,0.84239 -2.76001,0.17701 z m -3.91848,-0.9499 c 0,-0.38401 0.37567,-0.69819 0.83481,-0.69819 0.45915,0 0.83481,0.31418 0.83481,0.69819 0,0.384 -0.37566,0.69819 -0.83481,0.69819 -0.45914,0 -0.83481,-0.31419 -0.83481,-0.69819 z m 9.39163,-0.17455 c 0.19132,-0.48001 0.84873,-0.87274 1.46092,-0.87274 0.6122,0 1.26961,0.39273 1.46092,0.87274 0.20692,0.51917 -0.38494,0.87274 -1.46092,0.87274 -1.07598,0 -1.66783,-0.35357 -1.46092,-0.87274 z m 5.28683,-0.42995 c -0.35962,-0.48664 -0.4284,-1.07336 -0.15285,-1.30381 0.74713,-0.62485 1.56174,0.29415 1.15821,1.30662 -0.28277,0.70948 -0.47941,0.70893 -1.00536,-0.003 z m -8.30186,-1.141 c 0.26429,-0.576 1.00383,-1.04728 1.64343,-1.04728 0.63959,0 1.1629,0.47128 1.1629,1.04728 0,0.57626 -0.73914,1.04729 -1.64343,1.04729 -1.11784,0 -1.48974,-0.33493 -1.1629,-1.04729 z m -19.19398,-1.28675 c -6.18643,-3.13201 -11.29915,-12.17506 -10.13676,-17.92924 0.77121,-3.8177 4.42156,-6.9661 8.07671,-6.9661 1.55021,0 3.64644,0.48497 4.65829,1.07771 1.55641,0.91174 1.68465,1.28539 0.83277,2.42624 -0.78631,1.05301 -0.78593,1.53339 0.002,2.19214 0.55478,0.46399 1.28582,0.61184 1.62454,0.32856 0.33872,-0.28328 0.12565,-0.76844 -0.47349,-1.07813 -0.84994,-0.43932 -0.78376,-0.66113 0.30116,-1.00932 0.76483,-0.24544 1.52208,-0.44625 1.68283,-0.44625 0.86047,0 4.32293,4.97258 5.58062,8.01457 0.79714,1.92805 1.45336,2.87718 1.45826,2.10917 0.0142,-2.22014 -3.15487,-7.47814 -5.98284,-9.92655 -1.4271,-1.23556 -2.65431,-2.80648 -2.72715,-3.49095 -0.0728,-0.68446 -0.42359,-1.98211 -0.77946,-2.88366 -0.52955,-1.34157 -1.04891,-1.56255 -2.86059,-1.21711 -6.87075,1.31008 -7.41461,1.28009 -11.29757,-0.62307 -2.12057,-1.03935 -3.85559,-2.06173 -3.85559,-2.27195 0,-0.21022 2.24164,-0.18626 4.98143,0.0532 5.44432,0.47591 8.49604,10e-4 6.56723,-1.02119 -0.61243,-0.32469 -1.48918,-0.59034 -1.94832,-0.59034 -0.45915,0 -0.34193,0.26142 0.26048,0.58092 0.61649,0.32698 -1.86537,0.48138 -5.6775,0.3532 -3.72504,-0.12525 -7.41107,-0.56856 -8.1912,-0.98513 -1.07146,-0.57215 -0.24251,-0.65949 3.38908,-0.35707 5.25294,0.43743 8.66175,-0.41064 13.34935,-3.32118 5.78718,-3.59326 10.69312,-3.68712 13.1972,-0.25248 1.94534,2.66826 2.01249,3.26217 0.36882,3.26217 -0.68872,0 -1.25221,0.3478 -1.25221,0.77289 0,0.42509 0.55146,0.5959 1.22547,0.37959 1.70643,-0.54765 2.1985,0.41323 1.56605,3.058 -0.33082,1.38334 -1.15179,2.39307 -2.11746,2.60427 -3.04707,0.66642 -0.96134,1.91502 2.85989,1.71205 2.07675,-0.11032 6.53771,0.43951 9.91324,1.22183 7.32938,1.69867 7.4231,1.70359 7.4231,0.38981 0,-0.56792 0.94724,-3.39254 2.10496,-6.27694 1.2372,-3.08238 1.89762,-5.9353 1.60199,-6.92042 -0.65139,-2.17057 0.54927,-2.74987 2.87529,-1.38729 1.26323,0.73999 1.59126,1.33726 1.0397,1.89309 -0.64192,0.64688 -2.61307,12.02002 -2.61307,15.07691 0,0.39029 -0.87294,1.18798 -1.93987,1.77266 -1.70607,0.93491 -2.73741,0.94712 -8.55682,0.1013 -3.63933,-0.52895 -6.72259,-0.88554 -6.85172,-0.79241 -0.12912,0.0931 0.42194,1.1263 1.22458,2.29594 1.26182,1.83878 1.30758,2.3638 0.33807,3.87888 -1.19074,1.86079 -0.71946,5.90781 0.94801,8.14087 1.97607,2.64636 -2.45803,6.05291 -6.83273,5.24932 -2.22119,-0.40802 -2.48053,-0.69868 -2.07964,-2.33082 0.41924,-1.70684 0.35575,-1.68019 -0.75018,0.31486 -2.51724,4.54099 -7.09046,5.56958 -12.52662,2.81741 z m 7.64959,-0.98236 c -0.33888,-1.47167 -1.82046,-1.37888 -2.19802,0.13767 -0.15749,0.63255 0.30269,1.08416 1.10472,1.08416 0.85982,0 1.26927,-0.45759 1.0933,-1.22183 z m -6.8793,-1.64899 c 0.71962,-0.97381 -1.45334,-2.17581 -2.44066,-1.35008 -0.80302,0.67161 -0.0294,2.12633 1.13076,2.12633 0.40495,0 0.99441,-0.34931 1.3099,-0.77625 z m 6.03644,-1.45795 c 0.55098,-0.46081 0.97212,-1.48191 0.93587,-2.26912 -0.0534,-1.16077 -0.22438,-1.06839 -0.90438,0.48874 -0.96392,2.20729 -2.04126,2.38339 -4.77697,0.78082 -2.21555,-1.29787 -5.91974,-7.48188 -5.93195,-9.90318 -0.0105,-2.0913 1.42651,-4.31779 2.78687,-4.31779 1.95602,0 5.76091,4.0696 7.3085,7.81696 0.84113,2.03674 1.5416,3.1597 1.55658,2.49546 0.0518,-2.29823 -2.68181,-7.17844 -5.09214,-9.09058 -4.58431,-3.6368 -8.03912,-1.62534 -7.0957,4.13124 1.14315,6.97525 7.73536,12.77622 11.21332,9.86745 z m 4.89548,-1.65277 c 0.70446,-1.53535 -1.20744,-3.07428 -2.1816,-1.75602 -0.81657,1.10501 -0.26068,2.85024 0.90785,2.85024 0.42443,0 0.99762,-0.4924 1.27375,-1.09422 z m 2.5285,-2.90708 c -0.21166,-0.67932 -0.39876,-0.29257 -0.41577,0.85945 -0.017,1.15201 0.15616,1.70781 0.38484,1.23511 0.22867,-0.47269 0.24259,-1.41525 0.0309,-2.09456 z m -18.94438,-0.49573 c 0,-0.55334 -0.34971,-1.18684 -0.77713,-1.40777 -0.9925,-0.51301 -1.99069,0.79439 -1.3099,1.71566 0.76766,1.03882 2.08703,0.84418 2.08703,-0.30789 z m 15.46662,-3.91183 c 0.78235,-1.0587 -1.33815,-2.98847 -2.35206,-2.1405 -0.93625,0.78302 -0.20786,2.86928 1.00178,2.86928 0.44645,0 1.05408,-0.32795 1.35028,-0.72878 z m -2.10963,-0.6676 c 0,-0.38401 0.37567,-0.69819 0.83481,-0.69819 0.45915,0 0.83481,0.31418 0.83481,0.69819 0,0.384 -0.37566,0.69819 -0.83481,0.69819 -0.45914,0 -0.83481,-0.31419 -0.83481,-0.69819 z m -14.1918,-2.44366 c 0,-0.58183 -0.74206,-1.04729 -1.66963,-1.04729 -1.66314,0 -2.17144,0.74395 -1.11308,1.62911 1.01674,0.85034 2.78271,0.48111 2.78271,-0.58182 z m 3.18032,-5.76006 c -0.33888,-1.47168 -1.82046,-1.37888 -2.19802,0.13766 -0.15748,0.63255 0.3027,1.08417 1.10473,1.08417 0.85982,0 1.26927,-0.4576 1.09329,-1.22183 z m 2.66336,-8.55282 c 1.52601,-0.82479 0.20794,-0.82479 -2.08703,0 -1.1009,0.39565 -1.24308,0.61312 -0.4174,0.63842 0.68872,0.0211 1.81571,-0.26618 2.50443,-0.63842 z m 5.54667,-1.04679 c -0.0662,-0.95974 -0.40214,-1.7452 -0.7465,-1.74548 -0.75752,-5.9e-4 -0.80245,0.89736 -0.11939,2.38607 0.72319,1.57617 1.00447,1.36807 0.86589,-0.64059 z m -2.16596,-2.81118 c 1.46568,-0.6339 2.46297,-1.62337 2.46297,-2.44366 0,-1.77298 -0.1607,-1.74717 -3.2534,0.5225 -3.90758,2.86768 -3.5285,3.78905 0.79043,1.92116 z m 9.52455,35.23003 c -0.30265,-0.40955 -0.34981,-0.91229 -0.10481,-1.1172 0.59799,-0.50012 2.22617,0.38109 2.22617,1.20485 0,0.89227 -1.44123,0.83272 -2.12136,-0.0877 z m 10.92253,-0.6035 c -0.61738,-0.83545 0.95304,-1.66324 2.065,-1.08848 0.93362,0.48257 0.32071,1.73843 -0.84843,1.73843 -0.40495,0 -0.95241,-0.29248 -1.21657,-0.64995 z m -2.54009,-1.44462 c 0.28377,-0.384 0.89161,-0.69819 1.35076,-0.69819 0.45914,0 0.60264,0.31419 0.31887,0.69819 -0.28377,0.38401 -0.89161,0.69819 -1.35075,0.69819 -0.45915,0 -0.60264,-0.31418 -0.31888,-0.69819 z m 2.50444,-2.09457 c -0.28377,-0.384 -0.11811,-0.69818 0.36814,-0.69818 0.48624,0 0.88408,0.31418 0.88408,0.69818 0,0.38401 -0.16566,0.69819 -0.36814,0.69819 -0.20247,0 -0.60031,-0.31418 -0.88408,-0.69819 z m 8.7933,-36.10437 c -0.0427,-2.37473 -5.23971,-3.34099 -17.97623,-3.34224 -9.57982,-9.5e-4 -11.68473,0.2249 -17.94846,1.92574 l -7.0959,1.92681 -4.09429,-1.67137 -4.0943,-1.67138 4.72103,-1.14782 c 11.92065,-2.89829 27.27186,-3.03484 40.65431,-0.36163 6.5392,1.30623 6.90681,1.31254 7.97373,0.13669 1.02524,-1.12992 1.12069,-1.07906 1.14504,0.60999 0.0146,1.01347 -0.71229,2.5844 -1.61531,3.49095 l -1.64185,1.64827 -0.0278,-1.54401 z m 7.90294,0.49673 c 0.28377,-0.38401 0.6816,-0.69819 0.88408,-0.69819 0.20248,0 0.36814,0.31418 0.36814,0.69819 0,0.384 -0.39784,0.69819 -0.88409,0.69819 -0.48624,0 -0.6519,-0.31419 -0.36813,-0.69819 z m -2.3653,-1.16365 c -0.96057,-0.80336 -0.60794,-1.62911 0.69567,-1.62911 0.68872,0 1.25222,0.47128 1.25222,1.04729 0,1.09027 -0.98733,1.38518 -1.94789,0.58182 z"
       id="path3114"
       inkscape:connector-curvature="0"
       sodipodi:nodetypes="sssssssssscscccsscsssssssssssscsscsscsssssssscssscssscssscsscscssssssssssssssssssscssscsssssssscscccscscssssscssscccscccsssccsscsscsscssscsssssccscccssscssssssssssscscssccsssscssccsssccsscssssssssssscsscccsscsssssscsssscscssssccsssscssscsscsscccccsssscccccssscccsccccsccccscssssscsssccsscccsssccsssccsscsscscssssccscscsssssscssssssssssscssssssccccscssssscsscsscssssssscssccsssssssssssssssssssssssssccscssssccsccsssscscsccsssccsscccssscsccccssscssss" />
  </g>
</svg>
